<mxfile host="app.diagrams.net" agent="Mozilla/5.0 (Windows NT 10.0; Win64; x64) AppleWebKit/537.36 (KHTML, like Gecko) Chrome/131.0.0.0 Safari/537.36" version="25.0.3">
  <diagram name="第 1 页" id="hHDrkB5Ag4t7-D47Mfen">
    <mxGraphModel dx="1050" dy="569" grid="1" gridSize="10" guides="1" tooltips="1" connect="1" arrows="1" fold="1" page="1" pageScale="1" pageWidth="827" pageHeight="1169" math="0" shadow="0">
      <root>
        <mxCell id="0" />
        <mxCell id="1" parent="0" />
        <mxCell id="LnOEmy7er7an-ZKMsNfg-1" value="用户反馈处理功能" style="swimlane;whiteSpace=wrap;html=1;" vertex="1" parent="1">
          <mxGeometry x="290" y="150" width="186" height="310" as="geometry" />
        </mxCell>
        <mxCell id="LnOEmy7er7an-ZKMsNfg-2" value="社区反馈功能" style="ellipse;whiteSpace=wrap;html=1;fillColor=#dae8fc;strokeColor=#6c8ebf;" vertex="1" parent="LnOEmy7er7an-ZKMsNfg-1">
          <mxGeometry x="48" y="50" width="84" height="40" as="geometry" />
        </mxCell>
        <mxCell id="LnOEmy7er7an-ZKMsNfg-29" value="词条反馈功能" style="ellipse;whiteSpace=wrap;html=1;fillColor=#dae8fc;strokeColor=#6c8ebf;" vertex="1" parent="LnOEmy7er7an-ZKMsNfg-1">
          <mxGeometry x="48" y="170" width="84" height="40" as="geometry" />
        </mxCell>
        <mxCell id="LnOEmy7er7an-ZKMsNfg-28" value="商城反馈功能" style="ellipse;whiteSpace=wrap;html=1;fillColor=#dae8fc;strokeColor=#6c8ebf;" vertex="1" parent="LnOEmy7er7an-ZKMsNfg-1">
          <mxGeometry x="48" y="110" width="84" height="40" as="geometry" />
        </mxCell>
        <mxCell id="LnOEmy7er7an-ZKMsNfg-30" value="处理反馈功能" style="ellipse;whiteSpace=wrap;html=1;fillColor=#dae8fc;strokeColor=#6c8ebf;" vertex="1" parent="LnOEmy7er7an-ZKMsNfg-1">
          <mxGeometry x="48" y="230" width="84" height="40" as="geometry" />
        </mxCell>
        <mxCell id="LnOEmy7er7an-ZKMsNfg-12" value="普通用户" style="shape=umlActor;verticalLabelPosition=bottom;verticalAlign=top;html=1;fillColor=#f8cecc;strokeColor=#b85450;" vertex="1" parent="1">
          <mxGeometry x="200" y="170" width="30" height="60" as="geometry" />
        </mxCell>
        <mxCell id="LnOEmy7er7an-ZKMsNfg-13" value="商家" style="shape=umlActor;verticalLabelPosition=bottom;verticalAlign=top;html=1;fillColor=#f8cecc;strokeColor=#b85450;" vertex="1" parent="1">
          <mxGeometry x="200" y="265" width="30" height="60" as="geometry" />
        </mxCell>
        <mxCell id="LnOEmy7er7an-ZKMsNfg-14" value="" style="endArrow=block;endFill=0;html=1;rounded=0;fillColor=#d5e8d4;strokeColor=#82b366;exitX=0.5;exitY=0;exitDx=0;exitDy=0;exitPerimeter=0;entryX=0.5;entryY=0.5;entryDx=0;entryDy=0;entryPerimeter=0;" edge="1" parent="1" source="LnOEmy7er7an-ZKMsNfg-13" target="LnOEmy7er7an-ZKMsNfg-12">
          <mxGeometry width="160" relative="1" as="geometry">
            <mxPoint x="255" y="375" as="sourcePoint" />
            <mxPoint x="240" y="295" as="targetPoint" />
          </mxGeometry>
        </mxCell>
        <mxCell id="LnOEmy7er7an-ZKMsNfg-31" value="管理员" style="shape=umlActor;verticalLabelPosition=bottom;verticalAlign=top;html=1;fillColor=#f8cecc;strokeColor=#b85450;" vertex="1" parent="1">
          <mxGeometry x="200" y="390" width="30" height="60" as="geometry" />
        </mxCell>
      </root>
    </mxGraphModel>
  </diagram>
</mxfile>
